<?xml version="1.0" standalone="no"?>
<!DOCTYPE svg PUBLIC "-//W3C//DTD SVG 20010904//EN"
 "http://www.w3.org/TR/2001/REC-SVG-20010904/DTD/svg10.dtd">
<svg version="1.0" xmlns="http://www.w3.org/2000/svg"
 width="48.000000pt" height="48.000000pt" viewBox="0 0 48.000000 48.000000"
 preserveAspectRatio="xMidYMid meet">

<g transform="translate(0.000000,48.000000) scale(0.100000,-0.100000)"
fill="#000000" stroke="none">
<path d="M187 463 c-11 -10 -8 -41 4 -49 16 -9 43 21 36 40 -7 16 -28 21 -40
9z"/>
<path d="M331 420 c-16 -9 -6 -30 15 -30 15 0 20 25 6 34 -4 2 -14 1 -21 -4z"/>
<path d="M411 407 c-12 -30 -69 -79 -83 -71 -5 3 -7 16 -4 28 4 18 3 19 -7 5
-9 -11 -24 -14 -54 -11 -33 3 -43 8 -46 25 -4 20 -4 20 -6 2 0 -11 -15 -28
-33 -38 -31 -18 -32 -18 -48 3 -9 11 -19 18 -23 14 -12 -12 -8 -24 7 -24 8 0
17 -4 20 -9 6 -10 -15 -71 -25 -71 -10 0 9 -78 26 -104 8 -12 26 -29 39 -36
21 -11 23 -16 15 -39 -6 -14 -15 -29 -21 -32 -15 -9 -1 -42 15 -36 6 2 12 15
13 28 2 56 3 59 34 59 23 0 30 -4 30 -20 0 -11 5 -20 11 -20 6 0 9 9 6 20 -4
15 3 24 29 36 32 15 36 15 54 -1 10 -9 16 -22 14 -29 -3 -7 2 -19 11 -26 13
-11 19 -11 32 3 14 13 14 19 3 32 -7 9 -18 14 -24 12 -6 -3 -21 4 -33 15 -19
18 -20 22 -8 46 8 15 16 35 19 45 6 19 46 23 63 6 13 -13 33 -4 33 16 0 9 -13
13 -46 12 -44 -2 -46 -1 -61 36 l-16 38 39 40 c21 21 44 39 51 39 7 0 13 7 13
15 0 24 -30 17 -39 -8z m-129 -134 c36 -32 10 -103 -38 -103 -25 0 -56 37 -56
65 0 49 56 72 94 38z"/>
<path d="M226 241 c-7 -11 18 -33 27 -24 4 3 7 12 7 20 0 15 -26 18 -34 4z"/>
<path d="M56 271 c-7 -11 18 -33 27 -24 4 3 7 12 7 20 0 15 -26 18 -34 4z"/>
<path d="M105 150 c-3 -6 1 -7 9 -4 18 7 21 14 7 14 -6 0 -13 -4 -16 -10z"/>
<path d="M77 134 c-4 -4 -19 -7 -34 -8 -36 -1 -40 -39 -5 -44 15 -2 22 2 22
14 0 9 8 23 18 30 9 7 14 14 11 14 -3 0 -9 -3 -12 -6z"/>
</g>
</svg>
